<svg version="1.2" xmlns="http://www.w3.org/2000/svg" viewBox="0 0 395 368" width="395" height="368">
	<style>
		.s0 { fill: #ffffff } 
	</style>
	<path class="s0" d="m207.13 0.25c1.87 0.15 3.62 0.3 5.38 0.46q12.78 1.17 25.64 2.34c7.13 33.58 7.55 66.93 0.97 100.3-8.74 44.32-28.42 83.22-58.47 117.13-1.53-1.46-3.01-2.82-4.44-4.24-21.11-20.89-38.52-44.5-52.07-70.95q-15.96-31.17-23.55-65.35c-3.33-15.02-5.42-30.21-6.12-45.58-0.2-4.41-0.27-8.82-0.45-13.23-0.03-0.85 0.24-1.22 1.03-1.53q23.3-9.23 47.88-14.11c14.19-2.81 28.51-4.45 43.02-5.15 7.06-0.09 14.06-0.09 21.18-0.09z"/>
	<path class="s0" d="m137.87 367.25c-1.61-0.25-3.11-0.49-4.6-0.74-9.78-1.67-18.24-5.68-24.23-13.91-4.22-5.8-6.04-12.43-6.42-19.51-0.03-0.62-0.06-1.24-0.1-2.03 0.37 0.21 0.66 0.33 0.91 0.52 8.86 6.56 18.99 10.19 29.59 12.65 5 1.16 10.08 1.66 15.24 1.33 10.97-0.71 18.16-6.55 22.41-16.42 1.88-4.36 2.5-9.04 3.31-13.66q3.32-18.8 6.63-37.59c1.33-7.58 2.68-15.15 4.03-22.8 8.57 0 17.13 0 25.79 0q-1 5.81-2.01 11.62c-1.97 11.18-3.93 22.36-5.94 33.53-1.53 8.56-2.69 17.21-4.82 25.61-3.93 15.57-13.04 27.4-27.36 34.97-7.16 3.78-14.83 5.8-22.98 6.35-3.16 0.08-6.25 0.08-9.45 0.08z"/>
	<path class="s0" d="m26.5 255.04c12.33 0 24.54-0.07 36.74 0.03 7.51 0.06 14.96 0.81 22.01 3.7 5.28 2.16 9.71 5.33 12.1 10.72 1.92 4.32 2.07 8.88 1.52 13.48-1.42 11.94-8.57 19.35-19.13 24.03-1.24 0.55-2.52 1.03-3.64 1.49 2.48 1.04 5.12 1.92 7.55 3.19 7.13 3.75 10.46 10.21 9.47 18.21-1.96 15.85-11.09 26.08-25.44 32.1-6.92 2.91-14.22 4.03-21.69 4.04q-21.93 0.03-43.86 0.01c-0.37 0-0.73-0.03-1.2-0.05 0.58-3.28 1.15-6.46 1.71-9.65q3.56-19.95 7.12-39.9 1.73-9.64 3.46-19.27c0.32-1.78 1.27-3.08 2.92-3.79q11.51-4.92 24.01-5.76c0.16-0.01 0.32 0.04 0.54 0.06q-1.31 6.98-2.6 13.85c0.13 0.08 0.19 0.16 0.26 0.16 6.57-0.14 13.18 0.08 19.71-0.52 9.42-0.86 13.5-6.32 14.41-14.99 0.16-1.47 0.16-3.01-0.07-4.47-0.57-3.59-2.96-5.63-6.33-6.41-2.21-0.52-4.51-0.8-6.78-0.89-15.25-0.58-29.56 2.69-42.7 10.63-0.45 0.27-0.91 0.52-1.55 0.9 1.83-10.42 3.63-20.6 5.45-30.9 2 0 3.94 0 6.01 0zm7.25 71.1q-1.78 10.14-3.57 20.32c7.13 0 14.08 0.09 21.02-0.05 3.1-0.05 6.07-0.98 8.73-2.65 6.11-3.85 7.9-9.76 7.65-16.53-0.12-3.29-2.05-5.5-5.01-6.68-1.57-0.63-3.26-1.17-4.92-1.25-5.15-0.23-10.31-0.23-15.47-0.29-2.37-0.04-4.73-0.01-7.15-0.01-0.43 2.36-0.84 4.64-1.28 7.14z"/>
	<path class="s0" d="m290.57 16.69c2.66 1 5.21 2 7.79 2.92 0.78 0.28 0.95 0.7 0.95 1.47 0 12.13-0.87 24.2-2.49 36.22q-5.68 42.09-23.85 80.48c-9.78 20.67-21.98 39.81-36.54 57.44q-17.48 21.16-38.76 38.49c-0.32 0.26-0.65 0.5-1.04 0.8-3.32-2.81-6.61-5.6-9.76-8.27 64.62-55.85 97.36-126.21 97.68-211.68q2.83 1 6.02 2.13z"/>
	<path class="s0" d="m348.64 320.1c-5.74-1.74-11.41-3.34-16.77-5.87-7.36-3.47-12-9.07-13.04-17.18-0.98-7.62 0.35-14.96 4.05-21.73 6.61-12.12 17.06-19.13 30.39-21.75 10.55-2.08 20.97-1.18 30.92 3.22 4.09 1.81 7.82 4.2 10.9 7.65-2.14 3.01-4.24 6-6.38 8.96-1.07 1.49-2.1 3.02-3.35 4.35-2.57 2.73-5.55 3.01-8.81 1.16-2.78-1.58-5.52-3.29-8.47-4.48-5.37-2.18-10.92-2.11-16.34-0.12-4.95 1.81-8.22 6.63-8.25 11.6-0.01 1.81 0.65 3.31 1.87 4.61 2.39 2.54 5.52 3.8 8.68 4.98 5.21 1.95 10.49 3.71 15.66 5.76 4.56 1.82 8.76 4.3 11.75 8.35 0.96 1.3 1.71 2.75 2.47 4.18 0.55 1.02 0.34 2.06-0.45 2.88q-9.84 10.06-22.7 15.81c-0.07 0.03-0.16 0-0.24 0-0.05-0.07-0.14-0.14-0.13-0.2 0.62-3.95-1.02-6.89-4.32-8.8-2.32-1.34-4.89-2.25-7.44-3.38z"/>
	<path class="s0" d="m227.65 358.35c-8.56-5.87-13.61-14-15.85-23.91-0.76-3.35-1.02-6.82-1.39-10.24-0.07-0.66 0.26-1.48 0.65-2.06 7.17-10.74 16.49-19.08 28-24.97 0.95-0.49 1.91-0.95 3.11-1.55-0.18 0.5-0.26 0.76-0.36 1-3.67 8.24-5.46 16.86-4.51 25.87 0.84 8 3.96 14.84 11.2 19.16 4.45 2.64 9.34 3.23 14.42 3.16 7.54-0.12 14.29-2.34 20.27-6.96 1.67-1.29 3.56-2.28 5.78-1.59 0.75 0.23 1.56 0.7 2.04 1.31 2.73 3.41 5.37 6.89 8.04 10.35 0.1 0.13 0.17 0.28 0.3 0.49q-4.22 4.48-9.29 7.92c-7.73 5.23-16.3 8.16-25.55 9.19-7.99 0.89-15.94 0.78-23.79-1.25-4.67-1.21-9-3.17-13.07-5.92z"/>
	<path class="s0" d="m270 274.21c-16.35 1.44-30.58 7.58-42.84 18.27-6.28 5.46-11.41 11.87-15.48 19.13q-0.25 0.41-0.51 0.82-0.16-0.05-0.33-0.1c0.76-3.41 1.27-6.9 2.32-10.22 8.31-26.29 25.96-42.52 52.93-48.23 10.81-2.28 21.68-1.96 32.25 1.86 6.59 2.38 12.26 6.08 16.71 11.68-3.82 4.11-7.54 8.27-11.43 12.26-2.73 2.8-5.62 2.96-8.89 0.81q-1.15-0.75-2.24-1.59c-5.26-4.05-11.35-5.12-17.77-4.96-1.53 0.04-3.07 0.18-4.72 0.27z"/>
	<path class="s0" d="m131.95 305.69c-1.05 6.09-2.22 12.05-3.05 18.06-0.37 2.68-0.06 5.45-0.06 8.43-2.27-0.41-4.63-0.74-6.96-1.25-5.7-1.25-11.18-3.17-16.44-5.7-2.15-1.04-2.47-1.76-2.04-4.18q3.56-20.13 7.11-40.27 2.17-12.34 4.34-24.68c0.06-0.32 0.15-0.64 0.23-1.01 8.55 0 17.07 0 25.75 0-0.4 2.31-0.77 4.55-1.16 6.78q-3.59 20.39-7.19 40.77c-0.17 0.98-0.34 1.96-0.53 3.05z"/>
	<path class="s0" d="m325.52 338.98c3.52 2.45 6.97 4.85 11.19 5.76 5.84 1.25 11.71 1.29 17.61 0.41q15.63-2.34 29.03-10.68c0.14-0.08 0.29-0.16 0.73-0.1-0.87 2.14-1.59 4.36-2.62 6.42-6.88 13.81-18.15 21.82-33.2 24.45-13.45 2.34-26.05-0.2-37.63-7.49-2.73-1.72-5.16-3.78-7.26-6.36q3.39-4.2 6.75-8.35 1.45-1.8 2.91-3.59c2.91-3.58 7.2-4.17 10.98-1.51 0.47 0.33 0.95 0.66 1.51 1.04z"/>
</svg>
