<svg version="1.2" xmlns="http://www.w3.org/2000/svg" viewBox="0 0 1406 421" width="1406" height="421">
	<style>
		.s0 { fill: #ffffff } 
	</style>
	<path id="Layer copy" class="s0" d="m170.74 0c14.25 9.32 21.09 23.71 27.16 38.27 3.41 8.19 4.86 17.23 6.89 25.96 0.73 3.14-0.76 4.68-4.22 6.14-34.53 14.64-68.52 30.38-99.28 52.18-23.22 16.46-43.66 35.45-55.96 61.83-8.71 18.69-11.73 37.97-9.08 58.65 4.09 31.84 17.94 59.69 33.34 86.99 15.04 26.65 30.65 52.97 45.85 79.17-0.8-0.45-2.76-1.08-4.04-2.39-14-14.29-28.46-28.19-41.66-43.2-12.67-14.41-24.76-29.47-35.74-45.19-15.13-21.65-25.88-45.7-30.86-71.69-9.46-49.26 0.59-94.23 30.92-134.71 21.44-28.61 47.74-51.97 76.4-72.75 18.69-13.54 38.43-25.64 57.87-38.82 0.77-0.44 1.37-0.44 2.41-0.44z"/>
	<path id="Layer copy 5" class="s0" d="m206.59 320.82c5.99-11.69 12.51-22.69 17.09-34.45 7.57-19.39 4.87-39.27-0.67-58.63-8-27.98-22.88-52.27-41.74-74.24-3.07-3.58-5.9-7.35-8.85-11.04q0.61-0.75 1.22-1.51c7.98 5.14 16.25 9.89 23.89 15.5 24.74 18.2 43.41 41.47 56.15 69.4 7.33 16.06 12.33 32.78 14.63 50.43 5.93 45.56-7.73 85.03-36.25 119.99-6.33 7.76-13.81 14.56-20.45 22.08-3.63 4.11-7.43 4.29-10.93 0.89-11.31-11.02-22.63-22.06-33.28-33.7-5.11-5.58-8.72-12.53-13.42-19.48 19.51-13.46 38.14-26.62 52.61-45.24z"/>
	<path id="Layer copy 6" class="s0" d="m79.92 267.51c-12.63-26.26-4.48-56.56 19.45-72.33 17.74-11.71 45.39-11.04 63.46 2.98 14.91 11.57 22.25 26.81 21.54 44.84-1.02 25.95-14.88 46.19-42.7 52.95-23.29 5.66-48.51-4.15-61.75-28.44z"/>
	<path id="Layer copy 19" class="s0" d="m1405.91 238.01c-4.69-1.08-9.41-2.59-14.03-4.38-8.45-3.24-16.59-8.26-25.3-9.48-6.73-0.95-10.49-4.22-14.1-8.45-14.49-16.9-28.69-34.05-43.05-51.06-0.4-0.48-1.42-0.43-3.13-0.9 0 11.12-0.47 21.8 0.39 32.36 0.19 2.22 5.36 3.96 8.16 6.03 2.65 1.97 9.2 1.16 5.51 7.95-20.26 0-40.68 0-61.13 0-1.96-3.97-1.8-5.62 3.59-6.68 12.01-2.38 11.9-2.92 11.9-15.82 0-1.66-0.14-3.34 0.03-4.98 1.08-9.81-0.22-18.66-10.95-24.47 16.43-9 10.12-23.82 10.41-36.54 0.05-2.44-6.16-6.61-9.9-7.2-5.85-0.91-6.73-3.33-5.79-8.67 26.42 0 52.66-0.33 78.88 0.24 6.47 0.15 13.08 2.69 19.27 5.04 13.66 5.2 17.35 25.27 6.67 36.1-5.49 5.57-13.02 9.12-20.11 13.9 20.01 24.04 40.8 49.01 62.12 74.11 0.56 0.87 0.56 1.61 0.56 2.9zm-99.5-121.02c0 12.26 0 24.5 0 36.89 4.34 0 7.65 0.2 10.93-0.04 11.54-0.84 16.31-5.79 18.62-19.13 1.17-6.76-4.06-16.05-11.44-17.94-5.41-1.37-11.33-0.69-18.11 0.22z"/>
	<path id="Layer copy 20" class="s0" d="m649.44 404.61c-3.49-11.43-10.36-19-22.3-22.44 0-13.36-0.57-26.94 0.18-40.42 0.56-10.01-1.06-18.42-10.88-24.41 16.29-9.33 10.24-24.26 9.92-37-0.09-3.09-8.82-5.95-13.56-8.92q-0.86 0.88-1.73 1.78c-0.19-2.34-0.39-4.69-0.6-7.27 1.45-0.32 2.49-0.74 3.54-0.75 23.51-0.04 47.05-0.8 70.51 0.27 11.83 0.54 24.66 1.84 32.19 13.74 7.1 11.25 2.99 28.48-7.58 36.36-12.15 9.06-26.44 9.01-40.32 10.96-2.95 0.41-6.01 0.06-10.13 0.06 0 25.82 0 51.15 0 77.26-2.84 0.78-5.69 0.78-9.24 0.78zm28.94-91.96c8.08-6.33 10.91-16.39 7.11-25.18-4.11-9.47-11.8-12.33-26.31-9.72 0 12.8 0 25.61 0 38.66 6.33-1.12 12.15-2.14 19.2-3.76z"/>
	<path id="Layer copy 21" class="s0" d="m305 106.39c33.99-0.67 67.97-0.67 102.45-0.67 0 9.39 0 18.36 0 30.16-3.92-2.68-7.68-3.93-9.14-6.49-3.92-6.94-9.95-9.87-17.18-10.25-9.59-0.51-19.24-0.13-29.23-0.13 0 11.24 0 21.86 0 34.45 7.57-1.43 14.83-2.05 21.47-4.39 3.23-1.15 6.81-5.14 7.65-8.49 1.45-5.92 4.14-7.62 9.97-6.19 0 14.51 0 29.08 0 43.87-5.04 1.08-8.58 1.27-10.21-5.37-2.19-8.96-8.84-13.07-18.24-12.4-3.3 0.23-6.61 0.03-10.99 0.03 0 8.93-0.66 17.73 0.26 26.37 0.51 4.72 3.48 9.1 10.01 8.57 10.06-0.82 20.39-0.07 30.13-2.19 5.24-1.15 10.59-6.13 13.83-10.8 2.89-4.14 4.82-6.65 10.58-4.51-0.75 10.36-1.52 20.9-2.34 32.37-35.75 0-71.6 0-108.24 0-0.78-1.76-0.78-3.54-0.1-5.97 7-1.43 14.88-1.66 15.26-9.7 0.6-12.5 5.34-26.58-8.49-35.91-0.52-0.36-0.57-1.42-0.81-2.07 9.97-10.74 9.97-10.74 9.97-19.35 0-18.67 0-18.67-16.61-24.96 0-1.78 0-3.55 0-5.98z"/>
	<path id="Layer copy 22" class="s0" d="m803.43 110.73c-0.09-0.75-0.16-1.5 0.17-2.97 0.78-0.99 1.04-1.33 1.19-1.76 20.03-0.09 40.07-0.26 60.11-0.12 1.55 0 3.09 2.21 4.23 4.28-0.79 1.15-1.05 1.51-1.2 1.93-16.63 5.64-16.04 5.67-16.86 23.37-0.45 9.49 2.74 16.06 10.61 20.86-3.76 4.35-7.08 8.19-10.18 11.77-0.45 4.55-0.55 9.64-1.54 14.54-1.31 6.33 2.24 10.28 7.11 10.77 9.29 0.95 19.23 1.86 28.01-0.49 7.09-1.9 12.84-8.69 19.27-13.19 2.77-1.95 5.74-3.6 8.39-5.24 0 10.88-0.17 19.95 0.07 29.01 0.13 4.88-1.44 6.94-6.63 6.93-54.49-0.13-108.96-0.09-164.71-0.09 1.13-11.15 11.71-5.52 16.27-10.36-1.96-6.14-3.77-12.69-6.26-18.98-0.68-1.7-3.37-3.64-5.19-3.69-11.32-0.34-22.65-0.17-34.1-0.17-2.05 5.05-3.79 9.86-5.92 14.5-3.07 6.69-0.48 10.11 6.02 12.17 2.03 0.64 3.56 2.86 5.32 4.36q-0.71 0.95-1.43 1.89-23.99 0-47.98 0.01c-1.06-5.19-1.06-5.19 3.44-6.41 10.65-2.89 23.24-16.68 22.96-27.22-0.1-3.47-5.19-6.81-8.54-10.86 1.69-0.9 3.94-2.58 6.46-3.39 10.22-3.31 15.05-11.35 18.89-20.48 4.46-10.63 9.17-21.14 13.8-31.7 1.76-4 4.05-6.61 9.27-6.1 5.24 0.49 10.05-0.26 12.76 6.18q11.75 27.77 24.47 55.1c5.13 11.02 10.54 21.96 16.78 32.36 3.99 6.69 16.25 8.19 26.91 4.13 7.1-2.7 5.93-9.35 6-15.17 0.14-10.89 2.44-22.55-11.84-29.08 10.85-6.72 12.76-15.51 12.07-26.15-0.89-13.77-0.23-13.82-16.41-19.2-1.01-0.93-1.37-1.19-1.79-1.34zm-65.12 27.75c-1.48-2.75-2.96-5.51-5.15-9.62-5.49 12.58-10.15 23.24-15.09 34.56 9.92 0 19.07 0 28.71 0-2.9-8.15-5.65-15.87-8.47-24.94z"/>
	<path id="Layer copy 23" class="s0" d="m921.03 265.13c11.36 1.03 22.16 0.98 32.41 3.36 13.45 3.12 18.49 9.68 19.16 19.11 1.3 18.52-7.71 23.31-18.03 28.8-2.34 1.25-5.16 1.57-8.5 2.53 21.68 26.11 43.17 51.99 64.66 77.88q-0.74 1.08-1.48 2.17c-3.86-1.42-7.76-2.78-11.58-4.28-8.48-3.34-16.67-8.07-25.46-9.83-10.62-2.13-15.29-10.06-21.32-17.04q-19.51-22.57-38.97-45.15-1.04 0.39-2.09 0.78c0 10.8-1.22 21.81 0.66 32.28 0.68 3.81 8.73 6.3 13.41 9.39q0.84-0.83 1.69-1.68c0.12 2.35 0.25 4.69 0.39 7.5-20.88 0-41.26 0-62.4 0-0.24-2.04-0.49-4.32-0.83-7.12 1.74-0.3 3-0.54 4.27-0.72 10.81-1.49 12.5-3.38 12.51-13.98 0-4.42-0.29-8.86 0.08-13.26 0.45-5.58-0.49-10.27-5.33-13.77-4.13-3-3.63-5.97-0.06-9.48 4.65-4.58 8.62-29.1 4.49-33.47-3.54-3.74-9.62-5.07-15.42-7.87 0-0.76 0-2.91 0-6.15 18.94 0 37.93 0 57.74 0zm1.77 9.98c-4.3 0-8.61 0-12.71 0 0 13.4 0 25.66 0 38.17 4.82 0 9.3 1 13.03-0.24 4.77-1.61 10.64-3.95 13.07-7.83 8.61-13.69 3.81-24.62-13.39-30.1z"/>
	<path id="Layer copy 24" class="s0" d="m1009.04 170.02c-3.28-4.66-6.55-8.62-9.81-12.57 8.59-7.36 13.89-26 9.38-36.87-1.24-2.98-5.93-5.3-9.5-6.35-5.95-1.75-6.11-1.22-6.46-8.51 23.74 0 47.44-0.25 71.14 0.15 7.17 0.14 14.52 1.43 21.46 3.37 10.01 2.8 16.48 11.12 16.67 19.61 0.17 8.13-7.99 18.59-16.95 21.67-2.95 1.03-5.93 2-8.72 2.94 7.1 3.22 14.32 5.52 20.48 9.44 15.62 9.96 14.77 32.07-1.73 40.62-6.73 3.49-14.62 6.29-22.08 6.51-26.49 0.78-53.02 0.3-79.45 0.3-2.12-4.69-1.28-6.51 3.96-6.84 9.35-0.57 13.03-5.88 11.76-15.35-0.76-5.71-0.14-11.6-0.15-18.12zm32.93 12.82c-0.45 4.57-1.38 9.18-1.09 13.71 0.11 1.86 2.54 4.42 4.49 5.17 9.25 3.59 22.5-1.87 26.53-10.51 4.12-8.83-0.31-24.81-8.76-28.47-5.29-2.29-11.4-3.12-17.22-3.57-1.62-0.14-4.86 3.24-5.06 5.22-0.58 5.71 0.02 11.54 1.11 18.45zm7.37-68.82c-2.68 0-5.35 0-8.19 0 0 12.56 0 24.46 0 36.33 14.9 0.52 25.12-5.14 25.94-14.5 0.93-10.45 0.34-19.75-17.75-21.83z"/>
	<path id="Layer copy 25" class="s0" d="m434.61 105.72c18.51 0 36.22 0 53.65 0 0.98 10.82-9.43 6.34-14.81 11.26 5.49 7.56 10.89 15.02 16.88 23.29 8.37-7.99 15.85-15.13 22.82-21.77-2.63-6.38-13.61-2.3-9.94-12.31 15.27 0 30.9 0 48.54 0-1.63 3-2.38 6.8-4.32 7.54-13.45 5.1-21.48 16.52-31.15 25.97-4.26 4.17-7.8 9.1-12.07 14.17 22.6 27.67 45.46 55.65 68.31 83.62q-0.92 1.26-1.83 2.51c-3.9-1.87-8.04-3.36-11.64-5.67-9.2-5.88-19.04-9.15-29.84-11.23-5.35-1.02-10.37-6.87-14.27-11.58-9.68-11.61-18.63-23.84-27.9-35.8-0.64-0.81-1.6-1.38-3.18-2.72-8.23 9.02-16.25 17.84-24.23 26.58 2.83 4.12 12.05 1.37 9.29 10.35-16.03 0-32.24 0-50.8 0 2.23-3.16 3.33-5.79 5.29-7.31 4.82-3.73 10.58-6.39 14.99-10.51 11.31-10.53 22.08-21.63 33.73-33.14-12.15-13.82-23.67-27.33-35.77-40.29-2.44-2.62-7.26-2.88-10.7-4.76-2.65-1.43-4.85-3.68-7.25-5.57q0.71-1.31 1.43-2.63c4.64 0 9.29 0 14.77 0z"/>
	<path id="Layer copy 26" class="s0" d="m752.96 271.22c26.81-12.93 52.85-14.22 78.08 2.23 8.58 5.6 15.12 13.2 19.32 22.87 3.08 7.05 7.26 13.62 11.55 21.5-8.7 4.55-9.23 15.8-14.01 24.77-8.88 16.6-23.35 25.65-42.07 29.03-12.74 2.29-24.92 1.15-37.18-1.87-20.43-5.01-33.36-17.93-40.16-37.63-1.32-3.8-3.71-7.72-6.71-10.31-3.53-3.04-4.62-4.14-0.38-7.79 3.41-2.93 5.89-7.59 7.44-11.97 4.58-12.85 12.48-22.84 24.12-30.83zm8.79 33.75c-0.37 16.15-0.95 32.2 7.63 47.05 8.33 14.41 31.69 16.1 40.55 1.92 13.58-21.77 12.71-44.68 3.56-67.94-4.13-10.5-12.55-15.67-22.65-15.48-9.93 0.17-19.13 4.57-22.83 15.44-1.98 5.86-3.83 11.75-6.26 19.01z"/>
	<path id="Layer copy 27" class="s0" d="m598.89 349.16c-8.2 16.46-22.6 22.31-38.93 23.7-13.33 1.15-26.81 0.74-39.29-5.62-1.22-0.61-3.11-0.32-4.57 0.03-4.07 0.98-8.07 2.2-12.96 3.57 0-13.76 0-26.07 0-38.49 5.46-2.35 8.64-0.02 10.85 4.93 6.22 13.94 17.17 21.84 31.89 25.15 7.95 1.79 20.96-2.73 24.95-11.42 3.59-7.8-1.86-11.7-6.91-14.23-7.42-3.71-15.61-5.99-23.59-8.52-11.73-3.72-24.47-6.53-30.85-18.2-11-20.07 0.77-41.67 24.68-46.57 14.79-3.05 29.18-1.94 43.17 4 1.47 0.63 3.55 0.14 5.25-0.27 3.31-0.76 6.54-1.83 10.72-3.05 0 12.97 0 24.67 0 36.91-4.95 1.64-7.94 0.16-10.79-4.89-3.71-6.55-8.24-12.87-13.44-18.3-7.52-7.84-20.96-8.53-29.33-2.58-8.79 6.26-8.74 16.72 1.11 21.13 12.05 5.39 24.87 9.03 37.32 13.55 10.54 3.82 18.92 10.34 21.38 21.67 1.14 5.33-0.33 11.21-0.66 17.5z"/>
	<path id="Layer copy 28" class="s0" d="m1145.73 327.71c-13.57-3.47-26.83-7.3-31.77-21.18-7.89-22.18 4.26-37.75 27.93-43.05 14.27-3.2 28.06-1.69 41.49 4.01 1.47 0.62 3.55 0.13 5.27-0.24 3.48-0.75 6.9-1.78 10.93-2.84 0.23 2.84 0.41 4.17 0.41 5.51 0.03 10.21 0.01 20.42 0.01 30.94-5.54 1.86-8.96 0.71-11.28-4.73-3.55-8.26-7.51-16.23-15.99-21.03-8.91-5.03-21.77-4.66-28.2 1.49-6.91 6.62-6.03 16.15 2.92 20 12.14 5.21 24.84 9.12 37.36 13.41 25.87 8.87 26.88 34.07 15.93 47.71-8.52 10.62-21.44 14.46-34.82 15.27-13.44 0.81-26.78 0.12-39.32-5.8-1.23-0.59-3.11-0.21-4.56 0.19-3.49 0.91-6.92 2.1-11.49 3.55-0.88-13.82-1.65-26.02-2.44-38.64 6.05-1.28 9.49-1.29 12.24 4.77 6.15 13.55 16.78 22.35 31.68 25.34 8.67 1.73 16.33-1.24 22.63-6.61 6.67-5.69 4.56-14.56-4.79-19.11-7.48-3.64-15.68-5.8-24.14-8.96z"/>
	<path id="Layer copy 29" class="s0" d="m1233.23 183.4c-4.96 18.78-18.14 25.79-35.46 28.8-15.52 2.7-29.92 0.42-44.32-5.06-11.37-4.34-16.7-12.73-18.24-24.33-1.3-9.79-1.59-20.23-14.79-25.21 14.98-4.47 13.34-15.45 13.21-25.95-0.17-14.58-0.09-14.46-13.82-19.47-1.58-0.56-2.34-3.39-4.14-6.18 22.4 0 42.8 0 63.67 0 1.26 3.72 1.64 5.52-3.93 6.63-13.44 2.7-15.31-1.44-15.26 17.73 0.03 14.37 0.54 28.77-0.13 43.12-0.98 21.36 19.38 29.46 34.14 26.37 17.25-3.62 21.56-10.61 22.36-29.17 0.51-11.87 0.36-23.78 0-35.66-0.27-9.43-1.56-18.48-13.25-21.33-1.84-0.45-2.85-4.24-4.94-7.62 19.31 0 36.66 0 53.99 0q0.82 0.89 1.64 1.76c-1.9 1.75-3.51 4.3-5.75 5.12-11.49 4.14-13.33 6.46-13.33 18.77 0 13.82 0.1 27.66-0.07 41.48-0.04 3.16-1.03 6.33-1.58 10.2z"/>
	<path id="Layer copy 30" class="s0" d="m669.15 189.06c-10.36 17.93-38.72 27.68-59.54 23.6-14.64-2.86-27.77-7.09-37.47-18.54-4.28-5.04-7.3-11.2-10.58-17.02-3.62-6.42-6.9-13.04-10.28-19.49 6.29-10.43 13.13-22.27 20.47-33.81 7.24-11.41 19.2-16.36 31.36-19.44 13.78-3.51 27.91-3.04 41.91 0.95 4.87 1.39 10.52-0.19 15.64 0.66 2.33 0.38 5.94 3.29 6.04 5.22 0.59 10.68 0.28 21.43 0.28 32.43-3.36 0-6.04 0-8.9 0-5.23-12.31-10.69-24.66-24.3-30.45-13.91-5.9-29.57 0.15-35.55 14.1-1.99 4.63-4.59 9.98-3.87 14.51 0.92 5.9 4.88 11.3 7.97 17.87-1.91 2.72-8.02 7.48-7.65 11.65 0.92 10.45 6.99 19.16 16.79 24.24 17.81 9.23 38.92 1.99 51.66-16.85 2.78 1.31 5.61 2.66 8.98 4.23-0.86 1.96-1.69 3.84-2.96 6.14z"/>
	<path id="Layer copy 31" class="s0" d="m991.06 295.06c-0.07-8.92-0.14-17.85 0.18-27.69 0.76-1.19 1.02-1.54 1.17-1.96 36.05-0.07 72.08-0.16 109.04 0.17 1.2 0.77 1.54 1.03 1.97 1.18 0.08 8.92 0.15 17.83-0.18 27.68-0.77 1.19-1.01 1.53-1.17 1.96-1.26 0.08-2.53 0.15-4.58-0.18-1.04-0.75-1.39-1.01-1.82-1.16-4.17-4.92-8.35-9.84-13.19-15.59-2.05-1.25-3.44-1.66-4.83-2.05-4.66 0.34-9.32 0.68-14.76 0.6-1.43-0.97-2.08-1.5-2.75-2.03-0.15 0.43-0.48 1.19-0.4 1.26 0.82 0.49 1.72 0.86 2.59 1.27-0.05 4.96 0.15 9.96-0.19 14.9-0.63 8.69 0.32 16.14 9.48 20.64 3.98 1.95 2.78 5.46-1.04 7.51-6.89 3.67-9.01 9.32-8.55 17.03 0.62 10.46 0.16 20.97 0.16 32.13-9.77 0-19.26 0-29.89 0 0-10.74-0.56-21.72 0.19-32.61 0.54-7.74-1.64-13.02-8.45-16.65-1.5-0.8-2.43-2.73-2.44-4.56 2.66-2.11 4.16-3.8 5.65-5.48 0.05-0.55 0.32-0.98 1.74-1.4 1.66-1.22 2.4-2.35 3.13-3.47 0-8.97 0-17.96 0-28.62-6.91 0.75-13.42 1.45-20.97 1.77-2.49 1.04-3.92 2.46-5.35 3.87-2.17 3.47-4.34 6.93-7.04 11.09-0.89 0.96-1.15 1.3-1.3 1.73-1.27 0.08-2.54 0.15-4.58-0.18-1.05-0.75-1.4-1.01-1.82-1.16z"/>
	<path id="Layer copy 32" class="s0" d="m934.23 165.28c-2.91-4.77-5.73-8.85-8.57-12.93q-1.44 1-2.89 2.01c1.89-1.31 4.41-2.22 5.58-4.01 2.38-3.62 4.98-7.55 5.73-11.67 0.99-5.35-0.38-11.11 0.4-16.53 1.17-8.18-3.24-11.05-9.95-11.28-5.55-0.2-7.69-2.14-6.45-8.01 21.05 0 42.21 0 63.41 0 1.02 7.25 1.03 7.45-5.63 7.8-6.79 0.33-11.04 2.63-10.02 10.39 0.25 1.9 0.03 3.87 0.04 5.8 0.07 10.56-2.54 22.2 12.91 26.86-10.01 5.65-14.82 12.35-12.97 22.49 0.39 2.15 0.06 4.42 0.06 6.64 0 13.8 0.03 13.68 13.05 17.68 1.74 0.54 2.86 3.08 5.63 6.25-23.81 0-44.77 0-65.73 0-0.92-5.61-0.79-5.16 3.71-6.49 13.23-3.93 11.61 0.89 11.78-13.56 0.07-6.92 0-13.83-0.09-21.44z"/>
	<path id="Layer copy 33" class="s0" d="m808.45 314.43c0.45 2.08 1.25 4.41 0.47 5.3-5.32 5.89-10.98 11.46-16.7 17.33-6.51-7.21-12.52-13.88-18.22-20.17 5.4-5.25 12.17-11.84 19.48-18.94 4.19 4.62 9.38 10.34 14.97 16.48z"/>
</svg>