<svg version="1.2" xmlns="http://www.w3.org/2000/svg" viewBox="0 0 893 720" width="893" height="720">
	<style>
		.s0 { fill: #ffffff } 
	</style>
	<path id="Layer copy" class="s0" d="m481.74 0c14.25 9.32 21.09 23.71 27.16 38.27 3.41 8.19 4.86 17.23 6.89 25.96 0.73 3.14-0.76 4.68-4.22 6.14-34.53 14.64-68.52 30.38-99.28 52.18-23.22 16.46-43.66 35.45-55.96 61.83-8.71 18.69-11.73 37.97-9.08 58.65 4.09 31.84 17.94 59.69 33.34 86.99 15.04 26.65 30.65 52.97 45.85 79.17-0.8-0.45-2.76-1.08-4.04-2.39-14-14.29-28.46-28.19-41.66-43.2-12.67-14.41-24.76-29.47-35.74-45.19-15.13-21.65-25.88-45.7-30.86-71.69-9.46-49.26 0.59-94.23 30.92-134.71 21.44-28.61 47.74-51.97 76.4-72.75 18.69-13.54 38.43-25.64 57.87-38.82 0.77-0.44 1.37-0.44 2.41-0.44z"/>
	<path id="Layer copy 2" class="s0" d="m893 586.8c-3.8-0.87-7.63-2.1-11.38-3.55-6.85-2.63-13.46-6.7-20.52-7.69-5.46-0.77-8.51-3.42-11.44-6.85-11.75-13.71-23.27-27.62-34.92-41.42-0.32-0.39-1.15-0.35-2.54-0.73 0 9.02-0.38 17.68 0.32 26.25 0.15 1.8 4.35 3.21 6.62 4.89 2.15 1.6 7.46 0.94 4.47 6.45-16.44 0-33 0-49.59 0-1.59-3.22-1.46-4.56 2.91-5.42 9.75-1.93 9.66-2.37 9.66-12.83 0-1.35-0.12-2.71 0.02-4.04 0.88-7.96-0.18-15.14-8.88-19.85 13.33-7.3 8.21-19.32 8.44-29.64 0.04-1.98-4.99-5.36-8.03-5.84-4.74-0.74-5.46-2.7-4.69-7.03 21.43 0 42.71-0.27 63.98 0.19 5.25 0.12 10.61 2.18 15.63 4.09 11.08 4.22 14.07 20.5 5.41 29.28-4.45 4.52-10.56 7.4-16.31 11.28 16.23 19.5 33.09 39.75 50.39 60.11 0.45 0.71 0.45 1.31 0.45 2.35zm-80.71-98.16c0 9.94 0 19.87 0 29.92 3.52 0 6.21 0.16 8.87-0.03 9.36-0.68 13.23-4.7 15.1-15.52 0.95-5.48-3.29-13.02-9.28-14.55-4.39-1.11-9.19-0.56-14.69 0.18z"/>
	<path id="Layer copy 3" class="s0" d="m279.39 721.94c-2.83-9.27-8.4-15.41-18.09-18.2 0-10.84-0.46-21.85 0.15-32.79 0.45-8.12-0.86-14.94-8.83-19.8 13.22-7.57 8.31-19.68 8.05-30.01-0.07-2.51-7.15-4.83-11-7.24q-0.7 0.72-1.4 1.45c-0.16-1.9-0.32-3.81-0.49-5.9 1.18-0.26 2.02-0.6 2.87-0.61 19.07-0.03 38.17-0.65 57.2 0.22 9.59 0.44 20 1.49 26.11 11.15 5.76 9.12 2.42 23.1-6.15 29.49-9.86 7.35-21.45 7.31-32.71 8.89-2.39 0.33-4.87 0.05-8.21 0.05 0 20.94 0 41.49 0 62.67-2.31 0.63-4.62 0.63-7.5 0.63zm23.48-74.59c6.55-5.14 8.85-13.3 5.76-20.43-3.33-7.68-9.57-10-21.34-7.88 0 10.38 0 20.77 0 31.36 5.14-0.91 9.86-1.74 15.58-3.05z"/>
	<path id="Layer copy 4" class="s0" d="m0 480.04c27.57-0.54 55.13-0.54 83.1-0.54 0 7.61 0 14.89 0 24.46-3.18-2.17-6.23-3.19-7.41-5.26-3.18-5.63-8.07-8.01-13.94-8.32-7.78-0.41-15.6-0.1-23.71-0.1 0 9.11 0 17.73 0 27.94 6.14-1.16 12.03-1.66 17.42-3.56 2.62-0.93 5.52-4.17 6.2-6.89 1.18-4.8 3.36-6.18 8.09-5.02 0 11.77 0 23.59 0 35.59-4.09 0.87-6.96 1.03-8.28-4.36-1.78-7.27-7.17-10.6-14.8-10.06-2.67 0.19-5.36 0.03-8.91 0.03 0 7.24-0.54 14.38 0.21 21.39 0.41 3.83 2.82 7.38 8.12 6.95 8.16-0.67 16.54-0.06 24.44-1.78 4.25-0.93 8.59-4.97 11.22-8.76 2.34-3.36 3.91-5.39 8.58-3.66-0.61 8.41-1.23 16.96-1.9 26.26-29 0-58.08 0-87.8 0-0.63-1.43-0.63-2.87-0.08-4.84 5.68-1.16 12.07-1.35 12.38-7.87 0.49-10.14 4.33-21.56-6.89-29.13-0.42-0.29-0.46-1.15-0.65-1.68 8.08-8.71 8.08-8.71 8.08-15.69 0-15.15 0-15.15-13.47-20.25 0-1.44 0-2.88 0-4.85z"/>
	<path id="Layer copy 5" class="s0" d="m517.59 320.82c5.99-11.69 12.51-22.69 17.09-34.45 7.57-19.39 4.87-39.27-0.67-58.63-8-27.98-22.88-52.27-41.74-74.24-3.07-3.58-5.9-7.35-8.85-11.04q0.61-0.75 1.22-1.51c7.98 5.14 16.25 9.89 23.89 15.5 24.74 18.2 43.41 41.47 56.15 69.4 7.33 16.06 12.33 32.78 14.63 50.43 5.93 45.56-7.73 85.03-36.25 119.99-6.33 7.76-13.81 14.56-20.45 22.08-3.63 4.11-7.43 4.29-10.93 0.89-11.31-11.02-22.63-22.06-33.28-33.7-5.11-5.58-8.72-12.53-13.42-19.48 19.51-13.46 38.14-26.62 52.61-45.24z"/>
	<path id="Layer copy 6" class="s0" d="m390.92 267.51c-12.63-26.26-4.48-56.56 19.45-72.33 17.74-11.71 45.39-11.04 63.46 2.98 14.91 11.57 22.25 26.81 21.54 44.84-1.02 25.95-14.88 46.19-42.7 52.95-23.29 5.66-48.51-4.15-61.75-28.44z"/>
	<path id="Layer copy 7" class="s0" d="m404.3 483.56c-0.07-0.61-0.13-1.22 0.14-2.41 0.63-0.8 0.84-1.08 0.96-1.43 16.25-0.07 32.51-0.21 48.76-0.09 1.26 0 2.51 1.79 3.43 3.47-0.64 0.93-0.85 1.22-0.97 1.56-13.49 4.58-13.01 4.6-13.68 18.96-0.36 7.7 2.23 13.03 8.61 16.92-3.05 3.53-5.74 6.64-8.26 9.55-0.36 3.69-0.44 7.82-1.25 11.79-1.06 5.14 1.82 8.34 5.77 8.74 7.54 0.77 15.6 1.51 22.72-0.4 5.75-1.54 10.42-7.05 15.63-10.7 2.25-1.58 4.66-2.92 6.81-4.25 0 8.83-0.14 16.18 0.05 23.53 0.11 3.96-1.16 5.63-5.37 5.62-44.2-0.1-88.39-0.07-133.61-0.07 0.92-9.04 9.5-4.48 13.2-8.4-1.59-4.98-3.06-10.3-5.08-15.4-0.55-1.38-2.73-2.95-4.21-2.99-9.18-0.28-18.37-0.14-27.66-0.14-1.66 4.1-3.07 8-4.8 11.76-2.49 5.43-0.39 8.2 4.88 9.87 1.65 0.52 2.89 2.32 4.32 3.54q-0.58 0.77-1.16 1.53-19.46 0-38.92 0.01c-0.86-4.21-0.86-4.21 2.79-5.2 8.64-2.34 18.85-13.53 18.62-22.08-0.08-2.81-4.21-5.52-6.92-8.81 1.37-0.73 3.19-2.09 5.24-2.75 8.29-2.68 12.2-9.2 15.32-16.61 3.62-8.62 7.44-17.15 11.19-25.71 1.43-3.25 3.29-5.36 7.52-4.95 4.25 0.4 8.15-0.21 10.35 5.01q9.53 22.53 19.85 44.7c4.16 8.94 8.55 17.81 13.61 26.25 3.24 5.42 13.18 6.64 21.83 3.35 5.76-2.19 4.81-7.59 4.87-12.31 0.11-8.83 1.98-18.29-9.61-23.59 8.8-5.45 10.35-12.58 9.79-21.21-0.72-11.17-0.18-11.21-13.31-15.57-0.82-0.76-1.11-0.97-1.45-1.09zm-52.82 22.51c-1.2-2.23-2.4-4.47-4.18-7.8-4.45 10.2-8.23 18.85-12.24 28.03 8.05 0 15.47 0 23.29 0-2.35-6.61-4.58-12.87-6.87-20.23z"/>
	<path id="Layer copy 8" class="s0" d="m499.69 608.8c9.22 0.84 17.98 0.8 26.29 2.73 10.91 2.53 15 7.85 15.54 15.5 1.06 15.02-6.25 18.91-14.62 23.36-1.9 1.01-4.19 1.27-6.9 2.05 17.59 21.18 35.02 42.17 52.45 63.17q-0.6 0.88-1.2 1.76c-3.13-1.15-6.29-2.25-9.39-3.47-6.88-2.71-13.52-6.54-20.65-7.97-8.62-1.73-12.41-8.16-17.3-13.82q-15.82-18.31-31.61-36.63-0.84 0.32-1.69 0.64c0 8.76-0.99 17.69 0.53 26.18 0.55 3.09 7.08 5.11 10.88 7.62q0.68-0.68 1.37-1.37c0.1 1.91 0.2 3.81 0.32 6.09-16.94 0-33.47 0-50.62 0-0.19-1.66-0.4-3.51-0.67-5.78 1.41-0.24 2.43-0.44 3.46-0.58 8.77-1.21 10.14-2.74 10.15-11.34 0-3.59-0.24-7.19 0.06-10.76 0.37-4.52-0.39-8.33-4.32-11.17-3.35-2.43-2.94-4.84-0.05-7.69 3.77-3.71 6.99-23.6 3.64-27.15-2.87-3.03-7.8-4.11-12.5-6.38 0-0.62 0-2.36 0-4.99 15.36 0 30.76 0 46.83 0zm1.44 8.1c-3.49 0-6.99 0-10.31 0 0 10.87 0 20.81 0 30.96 3.91 0 7.54 0.81 10.57-0.2 3.87-1.3 8.63-3.2 10.6-6.35 6.98-11.1 3.09-19.97-10.86-24.41z"/>
	<path id="Layer copy 9" class="s0" d="m571.08 531.65c-2.66-3.78-5.31-6.99-7.96-10.19 6.97-5.97 11.27-21.09 7.61-29.91-1-2.42-4.81-4.3-7.7-5.15-4.83-1.42-4.96-0.99-5.24-6.9 19.25 0 38.48-0.21 57.7 0.12 5.82 0.11 11.78 1.16 17.41 2.73 8.12 2.27 13.37 9.02 13.52 15.91 0.14 6.59-6.48 15.08-13.75 17.58-2.39 0.83-4.81 1.62-7.07 2.38 5.76 2.61 11.61 4.48 16.61 7.66 12.67 8.08 11.98 26.01-1.4 32.95-5.46 2.83-11.86 5.1-17.91 5.28-21.49 0.63-43.01 0.24-64.45 0.24-1.72-3.8-1.04-5.28 3.21-5.55 7.59-0.46 10.57-4.77 9.54-12.45-0.61-4.63-0.11-9.41-0.12-14.7zm26.71 10.4c-0.36 3.71-1.12 7.45-0.88 11.12 0.09 1.51 2.06 3.59 3.64 4.2 7.5 2.91 18.25-1.52 21.52-8.53 3.34-7.16-0.25-20.12-7.11-23.09-4.29-1.86-9.24-2.53-13.96-2.9-1.32-0.11-3.95 2.63-4.11 4.24-0.47 4.63 0.02 9.36 0.9 14.96zm5.98-55.82c-2.17 0-4.34 0-6.64 0 0 10.19 0 19.84 0 29.47 12.08 0.42 20.37-4.17 21.04-11.76 0.75-8.48 0.27-16.02-14.4-17.71z"/>
	<path id="Layer copy 10" class="s0" d="m105.13 479.5c15.02 0 29.38 0 43.52 0 0.8 8.77-7.65 5.14-12.01 9.13 4.45 6.13 8.83 12.18 13.69 18.89 6.79-6.48 12.86-12.27 18.51-17.66-2.13-5.17-11.04-1.86-8.06-9.98 12.38 0 25.06 0 39.37 0-1.32 2.43-1.93 5.51-3.5 6.11-10.91 4.14-17.43 13.4-25.27 21.07-3.46 3.38-6.33 7.38-9.79 11.49 18.33 22.45 36.87 45.14 55.41 67.83q-0.75 1.02-1.49 2.04c-3.16-1.52-6.52-2.73-9.44-4.6-7.46-4.77-15.44-7.42-24.2-9.11-4.34-0.83-8.41-5.57-11.58-9.39-7.85-9.42-15.11-19.34-22.63-29.04-0.52-0.66-1.3-1.12-2.58-2.21-6.67 7.32-13.18 14.47-19.65 21.56 2.29 3.34 9.77 1.11 7.53 8.4-13 0-26.15 0-41.2 0 1.81-2.57 2.7-4.7 4.29-5.93 3.91-3.03 8.58-5.19 12.16-8.53 9.17-8.54 17.91-17.54 27.36-26.88-9.86-11.21-19.2-22.17-29.02-32.68-1.98-2.13-5.89-2.34-8.68-3.86-2.15-1.16-3.93-2.99-5.88-4.52q0.58-1.06 1.16-2.13c3.77 0 7.54 0 11.98 0z"/>
	<path id="Layer copy 11" class="s0" d="m363.36 613.74c21.75-10.49 42.87-11.53 63.34 1.81 6.96 4.54 12.26 10.71 15.67 18.55 2.5 5.72 5.89 11.05 9.37 17.44-7.06 3.69-7.49 12.82-11.37 20.09-7.2 13.47-18.94 20.81-34.12 23.55-10.34 1.86-20.22 0.93-30.16-1.52-16.57-4.06-27.06-14.54-32.58-30.52-1.07-3.08-3.01-6.26-5.44-8.36-2.86-2.47-3.75-3.36-0.31-6.32 2.77-2.38 4.78-6.16 6.04-9.71 3.71-10.42 10.12-18.53 19.56-25.01zm7.13 27.38c-0.3 13.1-0.77 26.12 6.19 38.16 6.76 11.69 25.71 13.06 32.89 1.56 11.02-17.66 10.31-36.24 2.89-55.11-3.35-8.52-10.18-12.71-18.37-12.56-8.06 0.14-15.52 3.71-18.52 12.53-1.61 4.75-3.11 9.53-5.08 15.42z"/>
	<path id="Layer copy 12" class="s0" d="m238.39 676.96c-6.65 13.35-18.33 18.1-31.58 19.23-10.81 0.93-21.75 0.6-31.87-4.56-0.99-0.5-2.52-0.26-3.71 0.02-3.3 0.8-6.54 1.79-10.51 2.9 0-11.16 0-21.15 0-31.22 4.43-1.91 7.01-0.02 8.8 4 5.05 11.3 13.93 17.71 25.87 20.4 6.45 1.45 17-2.22 20.24-9.27 2.91-6.32-1.51-9.49-5.61-11.54-6.02-3.01-12.66-4.86-19.13-6.91-9.52-3.02-19.85-5.3-25.03-14.76-8.92-16.28 0.63-33.8 20.02-37.78 12-2.47 23.67-1.57 35.02 3.25 1.19 0.51 2.88 0.11 4.26-0.22 2.68-0.62 5.3-1.49 8.69-2.48 0 10.52 0 20.01 0 29.94-4.01 1.33-6.44 0.13-8.75-3.96-3.01-5.32-6.68-10.44-10.9-14.85-6.1-6.36-17-6.92-23.79-2.09-7.13 5.08-7.09 13.56 0.9 17.14 9.77 4.37 20.17 7.32 30.27 10.99 8.55 3.1 15.35 8.39 17.34 17.58 0.93 4.32-0.26 9.09-0.53 14.19z"/>
	<path id="Layer copy 13" class="s0" d="m681.96 659.56c-11.01-2.81-21.77-5.92-25.77-17.18-6.4-17.99 3.45-30.62 22.65-34.92 11.58-2.59 22.76-1.37 33.66 3.26 1.19 0.5 2.88 0.1 4.27-0.2 2.82-0.61 5.6-1.44 8.87-2.3 0.18 2.3 0.33 3.38 0.33 4.47 0.02 8.28 0.01 16.56 0.01 25.09-4.5 1.51-7.27 0.58-9.15-3.83-2.88-6.7-6.09-13.17-12.97-17.06-7.23-4.08-17.66-3.78-22.88 1.21-5.6 5.37-4.89 13.1 2.37 16.22 9.85 4.23 20.15 7.4 30.31 10.88 20.98 7.19 21.8 27.63 12.92 38.7-6.91 8.61-17.39 11.73-28.25 12.38-10.9 0.66-21.72 0.1-31.89-4.7-1-0.48-2.52-0.17-3.7 0.15-2.83 0.74-5.61 1.71-9.32 2.88-0.71-11.21-1.34-21.1-1.98-31.34 4.91-1.04 7.7-1.05 9.93 3.87 4.99 10.99 13.61 18.13 25.7 20.55 7.03 1.41 13.24-1 18.35-5.36 5.41-4.61 3.7-11.81-3.88-15.5-6.07-2.95-12.72-4.7-19.58-7.27z"/>
	<path id="Layer copy 14" class="s0" d="m752.93 542.51c-4.02 15.23-14.71 20.92-28.76 23.36-12.59 2.19-24.27 0.34-35.95-4.11-9.22-3.52-13.55-10.32-14.8-19.73-1.05-7.94-1.29-16.41-11.99-20.45 12.15-3.63 10.82-12.53 10.71-21.05-0.14-11.83-0.07-11.73-11.21-15.79-1.28-0.46-1.9-2.75-3.36-5.02 18.17 0 34.72 0 51.65 0 1.02 3.02 1.33 4.48-3.19 5.38-10.9 2.19-12.42-1.17-12.38 14.38 0.03 11.66 0.44 23.34-0.1 34.98-0.8 17.33 15.72 23.9 27.69 21.39 13.99-2.94 17.49-8.61 18.14-23.66 0.41-9.63 0.29-19.29 0-28.93-0.22-7.65-1.27-14.99-10.75-17.3-1.49-0.36-2.31-3.44-4.01-6.18 15.67 0 29.74 0 43.8 0q0.66 0.72 1.33 1.43c-1.54 1.42-2.85 3.49-4.67 4.15-9.32 3.36-10.81 5.24-10.81 15.23 0 11.21 0.08 22.43-0.06 33.64-0.03 2.57-0.83 5.14-1.28 8.28z"/>
	<path id="Layer copy 15" class="s0" d="m295.38 547.1c-8.4 14.54-31.41 22.45-48.3 19.14-11.87-2.32-22.52-5.75-30.39-15.04-3.47-4.09-5.92-9.08-8.58-13.8-2.94-5.21-5.6-10.58-8.34-15.81 5.1-8.46 10.65-18.07 16.6-27.43 5.88-9.25 15.58-13.27 25.44-15.77 11.18-2.84 22.64-2.46 34 0.77 3.95 1.13 8.53-0.15 12.68 0.54 1.89 0.31 4.82 2.67 4.9 4.23 0.48 8.67 0.23 17.39 0.23 26.31-2.73 0-4.9 0-7.22 0-4.24-9.99-8.67-20-19.71-24.7-11.28-4.79-23.99 0.12-28.84 11.44-1.61 3.75-3.72 8.09-3.14 11.77 0.75 4.78 3.96 9.16 6.47 14.49-1.55 2.21-6.51 6.07-6.21 9.45 0.75 8.48 5.67 15.54 13.62 19.66 14.45 7.49 31.57 1.62 41.91-13.66 2.25 1.06 4.55 2.15 7.28 3.43-0.7 1.59-1.37 3.11-2.4 4.98z"/>
	<path id="Layer copy 16" class="s0" d="m556.5 633.08c-0.06-7.24-0.12-14.48 0.14-22.46 0.62-0.97 0.83-1.25 0.95-1.59 29.24-0.06 58.47-0.13 88.45 0.14 0.97 0.62 1.25 0.83 1.6 0.95 0.06 7.24 0.12 14.47-0.15 22.46-0.62 0.96-0.82 1.24-0.95 1.59-1.02 0.06-2.05 0.12-3.71-0.15-0.85-0.61-1.13-0.82-1.48-0.94-3.38-3.99-6.77-7.98-10.7-12.65-1.66-1.01-2.79-1.34-3.92-1.66-3.78 0.28-7.56 0.55-11.97 0.49-1.16-0.79-1.69-1.22-2.23-1.65-0.12 0.35-0.39 0.97-0.32 1.02 0.66 0.4 1.39 0.7 2.1 1.03-0.04 4.03 0.12 8.08-0.16 12.09-0.51 7.05 0.26 13.09 7.69 16.74 3.23 1.58 2.26 4.43-0.84 6.09-5.59 2.98-7.31 7.56-6.94 13.82 0.51 8.48 0.13 17.01 0.13 26.06-7.92 0-15.62 0-24.24 0 0-8.71-0.46-17.62 0.15-26.45 0.44-6.28-1.33-10.56-6.85-13.51-1.22-0.65-1.97-2.21-1.98-3.7 2.16-1.71 3.37-3.08 4.58-4.44 0.04-0.45 0.26-0.8 1.41-1.14 1.35-0.99 1.95-1.9 2.54-2.81 0-7.28 0-14.57 0-23.22-5.6 0.61-10.88 1.18-17.01 1.44-2.02 0.84-3.18 1.99-4.34 3.14-1.76 2.81-3.52 5.62-5.71 8.99-0.72 0.78-0.93 1.06-1.05 1.41-1.03 0.06-2.06 0.12-3.72-0.15-0.85-0.61-1.13-0.82-1.47-0.94z"/>
	<path id="Layer copy 17" class="s0" d="m510.4 527.81c-2.36-3.87-4.65-7.18-6.95-10.49q-1.17 0.81-2.35 1.63c1.54-1.06 3.58-1.8 4.53-3.25 1.93-2.94 4.04-6.13 4.65-9.47 0.8-4.34-0.31-9.01 0.32-13.41 0.95-6.63-2.63-8.96-8.07-9.15-4.5-0.16-6.24-1.73-5.23-6.49 17.07 0 34.24 0 51.43 0 0.83 5.88 0.84 6.04-4.56 6.32-5.51 0.27-8.96 2.14-8.13 8.43 0.2 1.54 0.02 3.14 0.03 4.71 0.06 8.56-2.06 18 10.47 21.78-8.12 4.59-12.02 10.02-10.52 18.25 0.32 1.74 0.05 3.58 0.05 5.38 0 11.2 0.03 11.1 10.59 14.34 1.41 0.44 2.32 2.5 4.56 5.07-19.31 0-36.31 0-53.31 0-0.75-4.55-0.64-4.18 3.01-5.26 10.73-3.19 9.41 0.72 9.55-11 0.06-5.61 0-11.22-0.07-17.39z"/>
	<path id="Layer copy 18" class="s0" d="m408.37 648.79c0.37 1.69 1.02 3.58 0.38 4.3-4.31 4.78-8.9 9.3-13.54 14.06-5.28-5.85-10.16-11.26-14.78-16.36 4.38-4.26 9.87-9.61 15.8-15.37 3.4 3.75 7.61 8.39 12.14 13.37z"/>
</svg>