<svg version="1.2" xmlns="http://www.w3.org/2000/svg" viewBox="0 0 826 735" width="826" height="735">
	<style>
		tspan { white-space:pre } 
		.t0 { font-size: 122px;fill: #ffffff;font-weight: 500;font-family: "Feijoa-Medium-Cambridge", "Feijoa Medium-Cambridge" } 
		.s1 { fill: #ffffff } 
		.t2 { font-size: 24px;fill: #ffffff;font-weight: 500;font-family: "Feijoa-Medium-Cambridge", "Feijoa Medium-Cambridge" } 
	</style>
	<text id="CAMBRIDGE" transform="translate(417,735)">
		<tspan x="-401.8" y="0" class="t0">C</tspan><tspan  y="0" class="t0">A</tspan><tspan  y="0" class="t0">M</tspan><tspan  y="0" class="t0">B</tspan><tspan  y="0" class="t0">R</tspan><tspan  y="0" class="t0">I</tspan><tspan  y="0" class="t0">D</tspan><tspan  y="0" class="t0">G</tspan><tspan  y="0" class="t0">E
</tspan>
	</text>
	<path id="Layer copy 2" class="s1" d="m263.72 356.85c2.91-2.16 5.52-4.13 8.35-6.28 12.18 18.41 29.49 28.36 50.58 32.16-1.96-9.04-4.26-17.54-5.57-26.19-1.96-12.94 3.89-24.18 14.85-29.52 11.88 14.47 28.67 18.62 46.8 21.44-9.64-19.68-14.82-39.38-9.41-61.81 6.27 8.34 13.93 12.66 23.15 13.83 9.01 1.14 17.84 0.14 26.35-3.3-0.21-0.65-0.22-1.03-0.41-1.19-14.8-12.14-19.47-28.3-19.53-46.78-0.03-9.68-1.85-19.35-2.88-29.16 8.33-1.37 17.27-2.84 26.67-4.38-8.15-6.45-15.59-12.32-23.02-18.2q0.39-0.49 0.78-0.97c8.02 1.54 16 3.39 24.07 4.57 31.16 4.51 62.03 2.51 92.72-4.22 30.12-6.6 59.95-6.81 88.69 6.12 29.04 13.07 52.2 33.47 69.16 60.13 11.32 17.8 20.62 36.9 30.37 55.66 5.92 11.39 11.77 22.72 20.56 32.24 9.93 10.78 21.41 16.56 36.74 13.49 10.38-2.08 21.08-2.27 31.35 1.55q3.11 1.16 6.03 2.72c8.08 4.31 8.03 4.33 5.83 13.1-3.33 13.28-1.94 25.95 4.75 38.03 5.55 10.02 10.19 20.39 9.56 32.25-0.15 2.91-0.8 5.8-1.2 8.6-6.26-6.09-12.23-11.9-18.2-17.7q-0.76 0.52-1.52 1.05c3.19 9.48 4.02 19.09 1.9 28.82-2.07 9.53-6.08 18.18-12.12 26.73-2.29-9.02-4.42-17.41-6.55-25.79-6.12 17.99-17.45 31.09-33.2 41.16 0.52-9.06 1-17.62 1.55-27.3-16.56 7.95-29.82 17.79-40.82 30.75-3.04-6.15-2.23-18.51 1.37-27.05 1.32-3.12 2.35-6.46 2.93-9.8 3.31-18.85 14.65-31.08 31.78-38.28 3.86-1.62 5.11-3.55 5.02-7.61-0.23-10.07-5.8-16.44-14.4-19.75-5.74-2.22-12.23-2.83-18.45-3.43-6.9-0.67-13.98 0.16-20.78-0.91-6.28-0.99-12.8-2.73-18.32-5.77-11.26-6.19-22.54-9.78-35.44-5.42-0.36-0.97-0.69-1.65-0.87-2.37-4.14-16.32-14.43-26.81-30.53-31.22-25.31-6.94-40.44-22.98-44.73-48.94-3.37-20.37-14.29-35.73-31.23-47.76-0.96 1.13-1.9 2.23-3.05 3.59 10.46 8.12 19.6 16.92 24.73 29.26-7.38 0.63-14.57 0.87-21.63 1.94-19.55 2.95-34.33 14.45-48.1 27.61-10.18 9.73-20.66 19.07-33.21 25.78-18.53 9.91-38.08 14.99-59.21 13.68-5.32-0.33-10.77-0.04-16.03 0.77-9.66 1.48-15.49 6.87-17.02 14.78-1.36 7.05 1.62 12.3 10.81 18.38-13.6 4.46-26.25 4.27-38.72-3.43-2.89 19.52-11.06 35.37-29.03 46.13 1.36-13.79-0.95-26.23-7.91-38.58-2.25 24.48-14.12 43.14-31.73 60.35 1.04-11.81 0.47-22.27-3.03-33.45-7.21 19.24-19.19 33.42-34.63 44.39-1.79-8.65-3.54-17.14-5.3-25.63q-0.78-0.12-1.56-0.24c-5.83 21.9-21.46 32.93-41.58 38.98 0-7.85 0-15.4 0-23.61-16.62 5.78-28.28 16.63-39.39 29.93-1.43-7.9-1.72-15.05 0.82-21.54 4.03-10.25 6.21-20.76 8.37-31.52 3.88-19.26 22.78-33.6 43.44-35.19 3.3-0.25 6.62-0.56 9.87-1.17 14.75-2.79 21.63-9.29 26.61-25.15 2.84 2.36 5.59 4.64 9.02 7.49 2.16-16.64 10.32-28.73 24.73-36.85z"/>
	<path id="Layer copy 3" class="s1" d="m444.09 92.22c-10.28 7.02-13.01 17.53-7.42 28.4 5.36 10.42 14.47 16.53 24.98 20.72 18.55 7.39 37.98 10.57 57.84 11.26 27.91 0.96 55.49-2.55 83.09-5.96 25.41-3.14 50.89-5.84 76.55-3.38 25.01 2.41 48.19 9.55 65.86 28.53 14.95 16.04 19.6 34.94 12.72 56.14-2.41 7.4-7.11 13.27-13.51 17.9 7.98 9.69 18.57 13.74 30.56 15.8-13.58 9.68-29.24 7.57-43.41-5.58-1.04 0.79-2.11 1.61-4.35 3.31 5.03 3.63 9.52 6.89 14.04 10.1 3.03 2.15 6.15 4.15 9.14 6.34 3.67 2.68 7.25 5.49 10.86 8.23-14.42 7.65-34 1.65-47.57-14.76-1.14 0.57-2.34 1.17-3.47 1.74 0 0.56-0.11 0.94 0.02 1.13 1.45 2.06 2.5 4.82 4.49 6.02 10.59 6.41 14.27 18.38 22.56 27.16-5.6 2.41-11.22 1.99-16.61 0.8-10.65-2.37-18.97-7.27-24.69-17.73-8.23-15.04-18.42-29-27.78-43.42q-0.47-0.74-0.96-1.5c7.03-0.55 13.96-0.54 20.67-1.72 10.81-1.92 20.59-6.23 27.43-15.4 10.98-14.71 8.45-33.73-6.23-47.3-9.88-9.13-22.03-12.62-34.99-14.04-22.17-2.43-44.18 0.1-66.16 2.48-28.42 3.07-56.79 6.82-85.48 5.89-23.72-0.76-47.34-2.49-70.01-10.33-11.97-4.13-22.66-10.42-31.29-19.86-11.91-13.01-16.27-28.07-11.03-45.11 5.06-16.47 17.96-24.38 33.76-27.78 24.24-5.22 46.64 0.52 67.62 12.97 1.34 0.79 2.64 1.68 4.04 2.57 15.29-10.04 31.96-15.12 50.19-14.88 20.06 0.28 37.75 6.88 52.89 20.05 2.22 1.92 4.14 2.54 7.14 2.29 14.83-1.23 29.07 0.43 41.26 10.13 0.83 0.66 1.57 1.43 1.74 1.58-6.45 0-13.26-0.22-20.05 0.05-10.09 0.41-18.97 4.33-27.22 9.97-15.7 10.74-32.77 17.41-52.09 17.93-23.4 0.62-43.48-6.94-59.79-23.74-9.78-10.08-21.21-16.86-34.96-19.6-10.23-2.04-20.4-2.63-30.38 2.6z"/>
	<path id="Layer copy 4" class="s1" d="m117.62 189.35c6.45 11.98 16.92 19.09 28.06 25.19 4.78 2.62 7.3 5.29 7.05 11.13-0.23 5.28 1.13 10.64 1.84 15.96 2.25 16.81-2.76 30.53-18.07 40.85 17.23 2.91 33.19 2.65 49.3-4.64 3.04 15.46 8.15 30.61-3.75 45.23 9.31 0.93 17.39-2.03 25.94-4.55-1.43 15.7-0.53 30.69 6.24 45.53-17.28 0.97-32.5-3.55-48.11-12.02 11.7-3.38 21.53-8.25 30.37-16.84-25.17 1.66-48.87 0.37-68.39-18.42 9.11-2.92 16.3-7.69 22.7-15.33-20.44 1.17-38.6-1.58-50.51-20.39 8.39-1.74 15.47-4.65 20.09-12.53-20.21-0.58-38.03-5.91-53.09-20.79 7.34-2.17 13.65-4.83 18.08-11.5-14.38-4.02-27.81-9.31-39.3-18.86 6.85-2.95 13.24-5.7 19.63-8.46q-0.06-0.63-0.13-1.26c-15.7-3.98-28.78-11.8-38.47-25.49 8.35-0.61 16.13-1.18 24.7-1.81-8.86-19.23-24.49-28.34-43.99-33.2 4.53-5.19 9.82-8.03 15.6-9.32 5.95-1.33 12.15-1.55 18.25-2.21 4.48-0.48 9.04-0.55 13.44-1.41 11.88-2.34 23.53-2.3 34.95 2.17 15.28 5.97 23.13 17.87 23.74 34.28 0.23 6.16 2.39 12.25 3.83 18.69z"/>
	<path id="Layer copy 5" class="s1" d="m505.39 453.13c-0.03-1.11-0.07-1.84-0.17-3.79-5.64 10.97-10.59 21.09-19.95 27.82-3.54 2.54-7.55 4.44-12.15 7.1 1.25-8.22 2.35-15.42 3.55-23.28-14.68 6.01-25.86 15.31-36.47 27.09-1.04-10.2-0.57-19.25 2.21-28.23 1.28-4.18 2.02-8.53 2.84-12.83 4.57-23.97 20.6-34.61 44.48-29.47 1.35 0.29 2.71 0.56 4.41 0.91 1.92-8.35 1.95-16.32-1.68-23.78-2.54-5.22-5.85-10.1-9.12-14.92-4.96-7.29-8.89-14.96-9.66-23.86-0.14-1.59 0.46-3.82 1.57-4.84 8.94-8.25 18.03-16.33 27.17-24.36 15.53-13.62 33.85-19.01 54.27-18.32 3.07 0.11 4.15 1.38 4.68 4.05 0.93 4.64 1.68 9.37 3.17 13.84 1.89 5.66 3.93 11.39 6.84 16.57 2.9 5.16 6.96 9.67 11.33 15.58-7.08 1.47-13.86 2.88-20.63 4.29 1.73 11.82 10.11 18.59 27.65 21.71-6 13.99-16.33 22.52-30.93 26.37 3.14 23.43-4.87 41.71-25.13 55.82 0.42-8.28 0.79-15.39 1.15-22.49-7.59 13.77-17.62 24.89-31.28 33.57 0.65-8.58 1.24-16.37 1.85-24.55z"/>
	<path id="Layer copy 6" class="s1" d="m349.28 32.52c5.11 4.87 10.65 9.03 14.48 14.41 4.22 5.94 2.79 12.24-2.84 16.92-5.79 4.82-9.42 10.82-12.35 17.62-1.15 2.68-4.07 4.61-6.18 6.87-1.24-2.69-3.11-5.27-3.57-8.09-0.66-4.01-0.16-8.19-0.38-12.29-0.14-2.82-0.35-5.7-1.06-8.42-2.25-8.56-9.04-11.46-17.48-7.37 0.52 1.21 1.04 2.44 1.6 3.78 0.85-0.11 1.47-0.15 2.06-0.28 5.2-1.22 8.05 0.13 9.05 5.32 0.86 4.44 0.7 9.08 1.05 13.63 0.29 3.77 0.31 7.6 1.09 11.27 1.24 5.85 4.61 7.95 10.67 7.34 14.16 24.38 6.96 56.74-15.77 68.84 1.23-10.91-1.04-20.54-9.27-28.74-1.12 1.08-2.16 2.07-3.36 3.22 5.03 5.63 7.99 11.76 8.06 19.04 0.15 15.8-14.57 25.49-28.89 18.74-5.66-2.68-10.87-6.32-16.54-9.68 3.43-3.19 6.69-5.92 9.6-8.98 12.16-12.8 14.06-24.75 6.54-40.65-2.2-4.64-4.59-9.18-7.54-15.06 8.95 5.46 16.93 5.58 24.8 1.15 7.52-4.24 12.43-10.61 14.46-19.06 2.25-9.41 0.81-11.33-8.84-12-17.58-1.2-28.01 4.61-35.14 20.19-3.3-7.73-4.58-15.12-3.35-22.83 0.16-1.04 1.99-2.29 3.26-2.62 17.25-4.41 31.48-13.51 42.84-27.19 6.59-7.94 13.21-9.43 23-5.08zm-40.52 136.36c-0.96-1.51-1.74-3.21-3.01-4.37-0.28-0.26-2.79 1.14-3.36 2.24-0.45 0.86 0.44 3.5 0.87 3.53 1.7 0.13 3.45-0.46 5.5-1.4zm-1.42-12.87c-1.29-1.21-2.45-2.65-3.96-3.46-0.36-0.2-2.44 1.52-2.63 2.56-0.2 1.05 1.08 3.4 1.52 3.36 1.69-0.18 3.3-1.09 5.07-2.46zm5.21 2.48c0.44 1.7 0.65 3.52 1.46 5.02 0.19 0.35 2.83 0.02 3.57-0.75 0.74-0.77 0.97-3.45 0.65-3.6-1.58-0.73-3.42-0.88-5.68-0.67z"/>
	<path id="Layer copy 7" class="s1" d="m253.15 101.55c-2.28 4.66-4.68 9.27-6.82 13.99-7.18 15.9-5.26 27.41 6.77 40.16 2.89 3.06 6.15 5.78 9.44 8.83-4.36 2.75-8.42 5.46-12.63 7.91-10.18 5.93-20.42 5.1-27.39-2.07-6.37-6.54-7.12-18.55-1.64-27.78 1.2-2.02 2.75-3.83 4.34-6.02-0.8-0.94-1.69-1.96-2.38-2.77-5.17-0.5-11.13 16.08-10.37 27.82-0.13 0.48-0.25 0.61-0.25 0.61-23.23-16.94-28.66-36.47-15.79-68.62 8.05-0.19 11.27-3.04 11.93-11.22 0.51-6.28 0.22-12.64 0.93-18.89 0.84-7.43 3.64-9.13 11.33-7.52 0.62-1.17 1.3-2.46 1.99-3.76-8.48-3.99-15.36-1.16-17.57 7.37-0.98 3.75-0.89 7.8-1.21 11.72-0.37 4.54-0.47 9.12-1.09 13.63-0.17 1.24-1.69 3.04-2.79 3.21-1.14 0.17-2.95-1.04-3.74-2.16-1.44-2.03-2.14-4.58-3.51-6.67-3.19-4.81-6.03-10.03-10.02-14.09-7.37-7.5-8.51-13.88-1.83-22 3.16-3.83 7.07-7.3 11.26-9.95 8.91-5.64 16.77-4.26 23.54 3.85 11.61 13.91 25.97 23.29 43.57 27.79 1.3 0.34 3.11 2.48 3.05 3.71-0.3 6.84-1.1 13.66-1.74 20.48q-0.89 0.08-1.78 0.17c-0.59-0.95-1.28-1.85-1.77-2.85-7.68-15.74-25.88-19.37-40.32-15.23-1.05 0.3-2.29 2.2-2.32 3.38-0.24 10.35 3.75 18.78 12.26 24.79 8.01 5.65 16.5 6.79 25.83 1.89 0.46 0.05 0.72 0.29 0.72 0.29zm-13.05 67.92c-0.67-1.66-1.12-3.48-2.16-4.86-0.23-0.3-2.94 0.59-3.71 1.57-0.6 0.76-0.24 3.52 0.17 3.63 1.67 0.44 3.52 0.21 5.7-0.34zm-3.68-11.06c1.64-0.27 3.53-0.16 4.8-1 0.54-0.35 0.26-3.22-0.56-3.99-0.82-0.77-3.71-0.91-4.02-0.38-0.75 1.34-0.55 3.21-0.22 5.37zm-7.12-0.55q-2.7 0.81-5.39 1.63c0.54 1.32 0.79 2.96 1.73 3.86 0.6 0.57 3.04 0.43 3.26-0.04 0.67-1.47 0.69-3.24 0.4-5.45z"/>
	<path id="Layer copy 8" class="s1" d="m285.51 50.59c3.92-4.5 7.67-8.7 11.7-13.21-0.44-0.66-1.2-1.81-2.13-3.21-13.17 8.45-19.23 20.63-20.16 35.72-0.53 8.71 1.33 16.97 5.14 24.77 4.08 8.37 8.52 16.58 12.42 25.04 2.43 5.27 4.4 10.85 2.51 15.94-8.15-1.65-15.92-4.39-23.72-4.46-7.81-0.07-15.64 2.52-23.97 4.04-1-3.97-0.39-8.88 1.77-13.47 3.96-8.43 8.21-16.72 12.34-25.06 7.11-14.35 8.3-29.01 2.05-43.95-3.25-7.78-8.68-13.81-16.1-18.49-0.89 1.17-1.7 2.25-2.81 3.71 7.68 5.5 13.65 12.12 16.14 22.07-20.48-4.41-34.46-17.26-47.17-32.34 5.01-7.06 11.69-11.59 20.98-10.52 6.78 0.77 12.13-1.3 17.34-5.65 10.52-8.79 27.68-8.96 38.22-0.29 5.49 4.51 11.05 6.6 18.2 5.98 9.08-0.8 15.47 2.98 20.55 10.83-20.39 21.22-34.84 30.96-47.38 31.5 1.38-3.06 2.64-5.86 4.08-8.95z"/>
	<path id="Layer copy 9" class="s1" d="m263.94 259.26c2.55 8.04 4.56 15.86 7.56 23.27 6.16 15.2 10.04 30.59 6.2 47.02-2.12 9.12-6.82 16.89-14.81 21.78-12.82 7.84-23.09 17.52-27.06 33.17-12.69-11.39-20.46-24.83-22.45-41.09-0.97-7.91-0.46-16.03-0.18-24.04 0.06-1.74 1.59-4.15 3.13-5 18.13-9.98 27.96-24.89 28.39-45.85 0.21-10.4 0.96-20.79 1.6-31.18 0.13-1.98 0.92-3.91 1.45-6.08 5.58 1.8 10.77 3.48 16.07 5.2 0 7.38 0 14.88 0.1 22.8z"/>
	<path id="Layer copy 10" class="s1" d="m172.52 191.67c13.93-5.95 25.06-15.14 35.19-25.9 11.15 7.7 18.51 17.31 17.74 31.43-0.08 1.47-0.86 3.42-1.97 4.23-5.09 3.69-8.41 8.59-10.24 14.43-3.01 9.62-5.76 19.34-8.54 29.03-7.95 27.74-29.27 36.36-55.21 33.67 7.96-9.42 11.13-20.24 10.42-32.11-0.38-6.28-1.94-12.51-2.12-18.78-0.2-7.04-0.04-14.2 1.08-21.12 1.2-7.37 5.17-13.19 13.65-14.88z"/>
	<path id="Layer copy 11" class="s1" d="m268.37 255.62c-0.04-6.36-0.04-12.29-0.04-17.88 7.97-1.56 14.7-2.88 21.79-4.27 0.83 2.75 1.25 5.98 2.72 8.62 3.67 6.58 6.88 13.78 11.97 19.11 10.41 10.91 15.7 23.74 18.28 38.2 1.37 7.7 3.35 15.3 5.15 23.36-20.59 12.93-17.65 32.51-12.52 53.35-2.72-0.86-4.92-1.43-7.03-2.25-12.5-4.86-23.06-12.25-30.73-23.48-1.86-2.73-2.19-4.88-0.35-8.04 8.91-15.27 7.69-31.46 3.36-47.72-1.17-4.4-3.15-8.58-4.55-12.92-2.75-8.53-5.35-17.09-8.05-26.08z"/>
	<path id="Layer copy 12" class="s1" d="m397.18 273.11c3.76 7.45 7.41 14.54 11.01 21.52-15.56 5.61-32.45-3-36.55-15.27-4.85-14.54-11.61-28.07-23.94-37.96-4.43-3.56-9.05-6.89-13.49-10.45-2.34-1.87-4.44-4.04-6.7-6.01-10.11-8.79-12.77-19.67-10.65-32.74 1.67-10.24 6.43-17.82 13.83-23.29 4.31 7.96 7.93 16.26 12.94 23.61 10 14.63 24.11 23.49 41.72 26.19 3.3 0.51 4.86 1.95 5.27 4.87 1.27 9.05 2.4 18.11 3.59 27.17 0.96 7.33 1.92 14.66 2.97 22.36z"/>
	<path id="Layer copy 13" class="s1" d="m331.16 234.88c3.65 2.81 6.96 5.5 10.43 7.96 12.72 9 19.49 22.04 24.74 36.13 0.3 0.8 0.39 1.93 0.05 2.68-7.21 16.19-4.52 32.43-0.29 48.65 0.95 3.64 2.38 7.16 3.6 10.75-14.96 1.28-34.47-12.65-38.83-27.98-1.67-5.9-2.65-12-3.73-18.05-2.46-13.71-7.94-25.8-17.78-35.9-6.7-6.87-11.56-14.93-13.7-24.47-0.62-2.76-0.15-4.29 2.33-6.19 5.41-4.15 10.27-9.03 14.73-13.04 5.77 6.09 11.98 12.66 18.45 19.46z"/>
	<path id="Layer copy 14" class="s1" d="m231.14 295.76c-10.42 12.36-23.79 18.75-39.8 22.43 5.5-13.85 2.05-26.76-0.15-39.74-0.27-1.6 0.43-4.11 1.6-5.1 7.09-6.03 11.96-13.49 14.77-22.21 3.19-9.91 5.86-19.98 8.85-29.95 1.78-5.96 4.22-11.55 10.01-15.56 3.05 9.73 8.82 17.2 15.69 21.6-0.76 13.07-1.56 24.97-2.11 36.87-0.52 11.15-1.45 22.12-8.86 31.66z"/>
	<path id="Layer copy 15" class="s1" d="m400.47 204.46c3.34 2.82 6.44 5.42 9.68 8.13-21.35 6.3-45.52-1.62-60.02-19.49-6.03-7.43-10.51-15.68-13.26-24.88-0.81-2.73-0.44-4.58 1.72-6.67 4.92-4.79 9.48-9.96 14.38-15.18 6.27 5.24 14.27 7.66 22.58 8.77 3.8 0.51 4.39 2.17 4.66 5.44 1.41 16.92 7.38 31.83 20.26 43.88z"/>
	<path id="Layer copy 16" class="s1" d="m241.86 220.83c-7.82-6.86-11.34-15.21-11.61-25.27-0.14-5.13-1.35-10.23-2.06-15.2q6.97 0.46 15.66 1.03c0.78 3.59 1.5 7.88 2.64 12.06 4.23 15.47 15.69 22.35 31.34 19 8.72-1.87 14.1-7.51 16.84-15.65 1.69-5.04 2.66-10.32 3.95-15.47 5.13-0.3 10.36-0.62 15.32-0.92-0.83 7.03-1.3 14.65-2.7 22.1-2.85 15.2-17.88 27.31-35.2 28.94-12.74 1.19-24-2.43-34.18-10.62z"/>
	<path id="Layer copy 17" class="s1" d="m163.02 189.92c-4.78 1.08-9.21 2.05-14.82 3.28 6.22-14.14 4.79-28.06 5.36-41.8 0.11-2.63 0.9-5.27 1.6-7.85 1.49-5.43 3.73-9.18 10.7-9.53 6.26-0.31 12.39-3.14 19.09-5 1.15 13.33 8.45 24.01 19.32 33.04-11.79 12.55-24.54 22.76-41.25 27.86z"/>
	<path id="Layer copy 18" class="s1" d="m112.66 147.94c-15.4-19.62-35.96-22.71-58.85-18.41-2.62 0.49-5.24 1.35-7.88 1.4-4.85 0.09-9.29-0.75-13.79-3.58-5.51-3.47-12.05-5.29-18.59-8.02 1.12-0.73 2.37-1.77 3.78-2.45 8.77-4.2 17.89-5.46 27.64-4.44 5.65 0.59 11.51-0.38 17.23-1.05 24.02-2.78 46.84 13.31 50.54 36.22-0.1 0.36-0.08 0.33-0.08 0.33z"/>
	<path id="Layer copy 19" class="s1" d="m133.54 432.56c10.08-13.03 23.19-19.39 40.46-20.52-4.65 3.23-8.37 5.48-11.71 8.2-12.24 9.95-17.77 23.07-19.28 38.66-0.83 8.54-3.39 16.88-12.28 21.71-5.44 2.95-10.04 7.43-15.31 11.46-2.04-12.38-1.2-23.9 7.34-33.9 1.23-1.45 1.81-3.49 2.55-5.31 2.71-6.66 5.37-13.34 8.23-20.3z"/>
	<path id="Layer copy 20" class="s1" d="m173.84 82.03c3.55-2.78 6.87-5.29 10.73-8.23 2.83 5.69 5.26 10.4 7.46 15.21 0.36 0.8-0.25 2.07-0.49 3.11-2.22 9.32-4.36 18.66-6.79 27.93-0.41 1.54-1.87 3.22-3.29 4.02-12.48 7-25.51 7.21-38.89 2.91 0.11-0.42 0.1-0.85 0.27-0.93 12.31-6.11 18.78-16.7 23.21-29.19 1.81-5.11 5-9.73 7.79-14.83z"/>
	<path id="Layer copy 21" class="s1" d="m61.51 91.03c5.05 0.37 9.75 0.48 14.43 0.88 21.16 1.84 38.43 20.78 37.74 43.07-0.17-0.6-0.24-1.24-0.52-1.77-11.26-21.92-35.63-30.32-58.95-25.56-3.1 0.64-5.17-0.21-7.79-1.72-7.75-4.43-15.82-8.31-23.59-12.33 5.08-6.72 22.89-8.36 38.68-2.57z"/>
	<path id="Layer copy 22" class="s1" d="m439.27 454.38c-1.57 10.22-7.31 16.48-16.29 20.34-2.66 1.15-4.87 3.32-7.89 5.45-0.51-9.97 1.71-18.6 5.59-26.98 1.29-2.8 2.08-5.85 2.97-8.83 1.4-4.67 2.17-9.6 4.11-14.02 8.19-18.59 27.33-26.35 46.98-19.04-2.79 0.61-5.25 0.99-7.61 1.69-15.34 4.58-22.99 15.81-26.2 30.73-0.73 3.38-1.02 6.86-1.66 10.66z"/>
	<path id="Layer copy 23" class="s1" d="m109.76 430.63c11.72-16.52 27.44-23.53 48.17-21.5-1.66 0.8-2.6 1.32-3.59 1.73-18.18 7.56-29.45 20.59-33.96 40.09-1.55 6.74-5.19 13.49-13.15 16.27-4.65 1.62-8.84 4.55-13.64 7.12-0.54-9.72 0.96-18.49 5.97-26.54 3.46-5.55 6.69-11.24 10.2-17.17z"/>
	<path id="Layer copy 24" class="s1" d="m386.84 128.93c6.96 7.73 11.4 16.42 14.52 26.17-11.14-2.18-21.74-4.2-32.31-6.38-2.29-0.47-4.52-1.39-6.67-2.36-7.28-3.28-7.25-4.01-6.09-11.89 1-6.78 1.01-13.71 1.46-20.55 11.9-0.19 20.89 6.3 29.09 15.01z"/>
	<path id="Layer copy 25" class="s1" d="m711.63 471.98c-0.36 10.51-5.47 16.81-14.87 20.54-4.12 1.65-7.56 5.01-12.09 8.14 0.2-12.35-0.32-24.11 9.77-32.93 0.81-0.71 1.72-1.51 2.13-2.46 6.41-14.94 19.17-20.99 33.91-24.2 2.98-0.65 6.06-0.85 9.28-0.84-12.96 7.4-23.06 17.09-28.13 31.75z"/>
	<path id="Layer copy 26" class="s1" d="m695.19 457.35c-5.86 13.61-17.93 18.85-30.59 24.07 1.23-11.72 2.89-22.94 14.18-29.75 0.78-0.48 1.64-1.05 2.11-1.8 7.52-12.06 19.45-15.47 32.5-16.15 6-0.31 12.06 0.47 18.19 1.36-14.5 3.6-27.59 9.1-36.39 22.27z"/>
	<path id="Layer copy 27" class="s1" d="m405.38 429.22c5.82-18.92 21.25-27.42 45.16-24.99-0.45 0.37-0.73 0.75-1.09 0.86-18.58 5.58-27.17 19.37-30.34 37.36-0.69 3.91-1.95 6.22-5.84 7.94-5.99 2.65-11.5 6.38-17.79 9.98-0.09-9.33 2.07-17.71 6.98-25.43 1.08-1.7 1.87-3.57 2.92-5.72z"/>
	<path id="Layer copy 28" class="s1" d="m365.97 78.6c11.16 7.33 18.9 16.96 23.91 30.13-9.13 0.4-17.71 1.19-26.27 0.99-4.87-0.11-9.18-2.42-9.68-8.37-0.04-0.46-0.15-0.97-0.39-1.35-6.2-9.7-0.2-17.37 4.26-25.89 2.73 1.5 5.3 2.91 8.17 4.49z"/>
	<path id="Layer copy 29" class="s1" d="m312.55 95.63c-8.93 5.32-15.17 5.07-22.57-1.23 3.05-2.64 6.01-5.19 9.16-7.92 1.27 3.2 2.02 5.95 3.39 8.35 1.95 3.42 4.12 3.53 5.83 0.07 1.63-3.32 3.01-7.07 3.2-10.7 0.18-3.44 1.15-5.15 4.36-5.99 2.27-0.59 4.44-1.56 7.36-2.61-0.14 8.81-4.14 14.91-10.73 20.03z"/>
	<path id="Layer copy 30" class="s1" d="m225.12 91.43c-3.81-4.64-6.12-9.49-6.01-15.59 1.62 0.51 2.93 1.04 4.28 1.33 4.95 1.06 7.78 3.4 7.65 9.13-0.06 2.92 1.64 6.02 3.03 8.8 1.62 3.25 3.94 2.94 5.59-0.02 1.36-2.44 2.2-5.17 3.55-8.48 3.04 2.55 6.03 5.07 9.07 7.63-8.08 7.77-17.63 6.7-27.16-2.8z"/>
	<path id="Layer copy 31" class="s1" d="m265.47 182.12c-2.92 2.11-5.49 4.18-8.35 5.73-2.29 1.25-4.99 2.53-6.74-1.09-1.93-4.01-1.44-8.2 1.99-9.35 5.23-1.75 10.77-2.57 16.18-3.78q0.46 0.75 0.91 1.5c-1.26 2.24-2.51 4.48-3.99 6.99z"/>
	<path id="Layer copy 32" class="s1" d="m287.26 176.12c3.07 1.16 5.64 2.19 5.67 5.86 0.07 6.4-2.77 8.34-8.53 5.66-6.09-2.84-9.65-6.98-11.11-13.61 4.75 0.68 9.18 1.32 13.97 2.09z"/>
	<path id="Layer copy 33" class="s1" d="m287.72 198.36c-2.57 6.28-6.61 8.92-14.09 9.63-1.88-10.01 2.72-13.29 14.09-9.63z"/>
	<path id="Layer copy 34" class="s1" d="m256.05 201.87c-0.76-1.2-1.32-2.13-1.89-3.08 10.44-4.86 15.61-1.67 14.76 9.33-5.07-0.29-9.28-2.19-12.87-6.25z"/>
	<text id="UNIVERSITY OF " style="transform: matrix(4.111,0,0,4.111,423.959,613.782)">
		<tspan x="-97.2" y="0" class="t2">U</tspan><tspan  y="0" class="t2">N</tspan><tspan  y="0" class="t2">I</tspan><tspan  y="0" class="t2">V</tspan><tspan  y="0" class="t2">E</tspan><tspan  y="0" class="t2">R</tspan><tspan  y="0" class="t2">S</tspan><tspan  y="0" class="t2">I</tspan><tspan  y="0" class="t2">T</tspan><tspan  y="0" class="t2">Y</tspan><tspan  y="0" class="t2"> </tspan><tspan  y="0" class="t2">O</tspan><tspan  y="0" class="t2">F</tspan><tspan  y="0" class="t2">
</tspan>
	</text>
</svg>